<?xml version="1.0" encoding="utf-8"?>
<!-- Generator: Adobe Illustrator 21.1.0, SVG Export Plug-In . SVG Version: 6.00 Build 0)  -->
<!DOCTYPE svg PUBLIC "-//W3C//DTD SVG 1.1//EN" "http://www.w3.org/Graphics/SVG/1.1/DTD/svg11.dtd">
<svg version="1.1" id="Capa_1" xmlns="http://www.w3.org/2000/svg" xmlns:xlink="http://www.w3.org/1999/xlink" x="0px" y="0px"
	 viewBox="0 0 512 512" style="enable-background:new 0 0 512 512;" xml:space="preserve">
<style type="text/css">
	.st0{fill:#999999;}
</style>
<g>
	<path class="st0" d="M507.5,485.9L383.1,361.5c33.4-38.4,53.6-88.4,53.6-143.2C436.7,97.9,338.7,0,218.4,0C97.9,0,0.1,98,0.1,218.3
		s98,218.3,218.3,218.3c54.7,0,104.8-20.2,143.2-53.6l124.4,124.4c3,3,6.9,4.5,10.8,4.5s7.8-1.5,10.8-4.5
		C513.4,501.6,513.4,491.8,507.5,485.9z M30.6,218.3c0-103.5,84.2-187.7,187.7-187.7c103.5,0,187.7,84.2,187.7,187.7
		s-84.1,187.8-187.7,187.8C114.8,406.1,30.6,321.8,30.6,218.3z"/>
</g>
</svg>
