<?xml version="1.0" encoding="utf-8"?>
<!-- Generator: Adobe Illustrator 21.1.0, SVG Export Plug-In . SVG Version: 6.00 Build 0)  -->
<!DOCTYPE svg PUBLIC "-//W3C//DTD SVG 1.1//EN" "http://www.w3.org/Graphics/SVG/1.1/DTD/svg11.dtd">
<svg version="1.1" id="Ebene_1" xmlns="http://www.w3.org/2000/svg" xmlns:xlink="http://www.w3.org/1999/xlink" x="0px" y="0px"
	 viewBox="0 0 512 512" style="enable-background:new 0 0 512 512;" xml:space="preserve">
<style type="text/css">
	.st0{fill:#707070;}
</style>
<path class="st0" d="M424.8,135.2c-0.3-6.9-6.1-12.4-13-12.4h-69l-1.3-29.5c-0.2-49.4-40.4-89.5-89.8-89.5
	c-49.4,0-89.7,40.2-89.8,89.6l-0.6,29.4H90.1c-6.9,0-12.7,5.4-13,12.4L60.1,491.9c-0.2,3.6,1.1,7,3.6,9.6c2.5,2.6,5.9,4,9.4,4h356.5
	c3.6,0,7-1.5,9.4-4c2.5-2.6,3.7-6.1,3.6-9.6L424.8,135.2z M188,93.9c0-0.1,0-0.2,0-0.3c0-35.2,28.6-63.8,63.8-63.8
	c35.2,0,63.8,28.6,63.8,63.8c0,0.2,0,0.4,0,0.6l1.2,28.7H187.4L188,93.9z M86.7,479.6l15.9-330.7h296.9l16.4,330.7H86.7z"/>
</svg>
